# xmcd
#
# Track frame offsets:
#	150
#	10455
#	20075
#	36000
#	46812
#	60687
#	71972
#	91062
#	108525
#	121235
#	131812
#
# Disc length: 1909 seconds
#
# Revision: 0
# Processed by: cddbd v1.4PL0 Copyright (c) Steve Scherf et al.
# Submitted via: dBpowerAMP V4.0
#
DISCID=9807730b
DTITLE=Lillian Askeland - Roses For Sale
DYEAR=1993
DGENRE=Country
TTITLE0=The Right Combination
TTITLE1=No Strings
TTITLE2=Now That You`re A Cowboy
TTITLE3=Ol` Fashion Passion
TTITLE4=It`s Not Love With Anyone But You
TTITLE5=Forever Blue
TTITLE6=Roses For Sale
TTITLE7=Our Wedding Band
TTITLE8=Let Them Walk In The Sunshine
TTITLE9=Kissing This Heartache Goodbye
TTITLE10=Final Touch
EXTD=
EXTT0=
EXTT1=
EXTT2=
EXTT3=
EXTT4=
EXTT5=
EXTT6=
EXTT7=
EXTT8=
EXTT9=
EXTT10=
PLAYORDER=
